<svg xmlns="http://www.w3.org/2000/svg" viewBox="0 0 303.187 303.186"><g id="레이어_2"><g id="Layer_1"><path d="M151.593,0A151.593,151.593,0,1,0,303.187,151.593,151.594,151.594,0,0,0,151.593,0Zm0,299.122A147.529,147.529,0,1,1,299.122,151.593,147.531,147.531,0,0,1,151.593,299.122Z" style="fill:#231815"></path><path d="M151.593,54.963a96.63,96.63,0,1,0,96.631,96.63A96.63,96.63,0,0,0,151.593,54.963Zm0,191a94.369,94.369,0,1,1,94.368-94.368A94.37,94.37,0,0,1,151.594,245.961Z" style="fill:#231815"></path><path d="M28.623,156.481a5.787,5.787,0,1,0-5.787-5.786A5.788,5.788,0,0,0,28.623,156.481Z" style="fill:#231815"></path><path d="M277.359,156.481a5.787,5.787,0,1,0-5.787-5.786A5.787,5.787,0,0,0,277.359,156.481Z" style="fill:#231815"></path><path d="M43.494,177.046l-.738-2.913.77-.2,2.366,9.349-.769.194-.738-2.913-20.6,5.214.737,2.915-.769.194-2.367-9.35.771-.195.738,2.915Z" style="fill:#231815"></path><path d="M47.149,189.637l-1.192-2.688.725-.323,2.97,6.7L39.375,210.278l.026.057,14.144-6.271-1.4-3.162.725-.321,2.984,6.726-.727.323-1.192-2.689-20.35,9.024-.391-.491,13.686-22.6-.025-.057-18.744,8.311,1.427,3.219-.725.321L25.8,195.884l.727-.321,1.191,2.688Z" style="fill:#231815"></path><path d="M66.079,222.773l-1.748-2.3.632-.48,5.768,7.576-.631.482-1.82-2.391L51.371,238.536l1.821,2.39-.632.483-5.768-7.578.631-.48,1.747,2.3,8.406-6.4-6.02-7.907-8.4,6.4,1.748,2.3-.631.48L38.5,222.94l.631-.481,1.82,2.391,16.908-12.873-1.82-2.392.632-.479,5.768,7.575-.632.482-1.747-2.3-7.873,5.994,6.019,7.905Z" style="fill:#231815"></path><path d="M70.59,245.653,66.6,242.1l7.473-4.268.049.043Zm-12.221.079-2.01-1.784-.526.592,5.33,4.739.526-.593-2.508-2.231,6.519-3.82,4.445,3.951L67,253.4l-2.485-2.209-.527.593,7.7,6.84.527-.592-2.2-1.955,9.374-21.664-.477-.425Z" style="fill:#231815"></path><path d="M97.752,249.172l-2.677-1.219.328-.722,8.855,4.034-.329.722-2.873-1.31-6.294,13.817c-1.71,3.753-1.7,5.9,3,8.039,5.485,2.5,7.069.481,8.659-3.01l6.188-13.583-3.135-1.428.329-.722,6.451,2.939-.328.723-2.445-1.115-6.333,13.9c-1.816,3.985-3.879,5.894-10.7,2.786-6.992-3.186-6.937-5.763-5.162-9.662Z" style="fill:#231815"></path><path d="M122.886,259.291,120,258.729l.151-.778,7.19,1.4,8.019,18.132.063.012,2.953-15.189-3.393-.659.153-.779,7.221,1.4-.15.78-2.889-.561-4.249,21.852-.626.038-10.7-24.157-.062-.014-3.915,20.128,3.456.672-.152.779-7.285-1.416.151-.78,2.888.562Z" style="fill:#231815"></path><path d="M149.865,263.174l-3,0,0-.793,9.642-.017,0,.793-3,0,.04,21.25,3.006,0v.794l-9.642.018,0-.793,3-.007Z" style="fill:#231815"></path><path d="M162.117,262.481l-2.586.422-.127-.783,9.586-1.567.128.783-3.25.532,7.976,15.717.064-.01,2.871-17.49-3.248.53-.127-.784,6.683-1.092.129.783-2.334.383-4.077,23.384-.693.113Z" style="fill:#231815"></path><path d="M185.955,257.616l-2.8,1.1-.291-.738,17.018-6.715,2.751,6.45-.773.306c-2.994-4.887-4.305-4.985-11.1-2.3l-1.433.565,3.634,9.207,1.612-.637c3.462-1.365,3.195-2.741,1.892-5.953l.893-.352,4,10.133-.892.353c-1.5-3.7-2.064-4.622-5.526-3.256l-1.612.637,3.8,9.634,4.507-1.779c4.552-1.795,5.136-4.67,4.09-9.153l.8-.317,2.6,7.367-17.88,7.056-.292-.737,2.8-1.1Z" style="fill:#231815"></path><path d="M211.053,245.367l1.388-.915c2.723-1.8,4.6-.929,6.234,1.551,1.444,2.188,1.866,4.513-.51,6.081l-1.87,1.231Zm8.668,19.739-2.508,1.654.436.663,7.943-5.241-.436-.662-2.4,1.586-5.91-8.961,1.681-1.109c3.407-2.248,4.752-1.488,7.252,1.838,2.721,3.6,3.783,4.693,7.029,2.552l1.949-1.286-.437-.662-.667.44c-1.628,1.073-2.756-.171-4.753-2.91-2.992-4.073-4.541-3.817-8.856-1.663l-.036-.054c2.356-2.014,3.725-4.219,1.686-7.312-2.553-3.869-5.419-3.007-8.806-.771l-7.81,5.152.437.662,2.507-1.654Z" style="fill:#231815"></path><path d="M234.567,246.47l.627-.616c2.742,2.458,6.923,2.868,9.57.253,1.886-1.862,2.784-4.679.632-6.857-4.325-4.378-11.6,5.9-17.134.293-2.846-2.882-1.983-6.925.7-9.574a15.2,15.2,0,0,1,5.17-3.171l3.656,3.428-.591.6c-3.107-2.054-5.661-2-7.786.1-1.59,1.572-2.258,3.939-.483,5.736,4.021,4.071,11.033-6.182,17.041-.1,3.079,3.116,2.016,7.766-.806,10.552a15.617,15.617,0,0,1-5.9,3.8Z" style="fill:#231815"></path><path d="M239.845,219.231l-1.8,2.409-.634-.475,5.764-7.729.636.475-1.8,2.408,17.035,12.705,1.8-2.409.635.474-5.765,7.729-.636-.474,1.8-2.409Z" style="fill:#231815"></path><path d="M250.315,203.535l-1.246,2.455c-1.49,2.938.948,5.539,3.539,7l-.435.856-6.523-3.313,9.2-18.129,6.525,3.311-.433.855c-2.707-1.23-6.262-1.635-7.739,1.275l-1.246,2.454,18.768,9.526,1.593-3.138.707.356-4.829,9.518-.709-.359,1.594-3.139Z" style="fill:#231815"></path><path d="M268.838,184.655,257.1,187.71l-.686,2.581-.768-.2,2.614-9.829.767.2-.852,3.206L268.5,181.2l-7.812-7.008-.836,3.146-.768-.2,1.739-6.534.766.2-.641,2.413,8.761,7.907,10.389,2.764.758-2.848.768.2-2.471,9.291-.768-.205.78-2.931Z" style="fill:#231815"></path><path d="M74.736,55.214a9.682,9.682,0,1,1,13.257,3.12A9.632,9.632,0,0,1,74.736,55.214Zm11.234-.186c2.04-1.248,2.361-4.436.719-7.122s-4.627-3.853-6.666-2.606-2.362,4.436-.721,7.121S83.929,56.274,85.97,55.028Z" style="fill:#231815"></path><polygon points="79.377 38.975 77.708 36.243 73.002 39.12 74.674 41.852 68.541 45.6 70.458 48.738 87.428 38.363 85.511 35.226 79.377 38.975" style="fill:#231815"></polygon><polygon points="92.026 28.859 87.322 31.735 102.915 57.237 107.619 54.362 98.72 39.805 102.94 37.226 101.022 34.088 96.802 36.667 92.026 28.859" style="fill:#231815"></polygon><polygon points="161.375 15.14 161.375 24.252 159.393 24.252 159.393 15.14 154.126 15.14 154.126 45.03 159.393 45.03 159.393 28.217 161.375 28.217 161.375 45.03 166.642 45.03 166.642 15.14 161.375 15.14" style="fill:#231815"></polygon><path d="M143.265,20.161h8.328V16.483H137.746v17.7a3.467,3.467,0,0,0,3.576,3.357h14.761V33.864H143.265Z" style="fill:#231815"></path><path d="M44.308,102.172l6.868,3.634,9.523-18,3.257,1.723L53.523,109.246a3.471,3.471,0,0,1-4.646,1.586l-7.149-3.783Z" style="fill:#231815"></path><rect x="42.306" y="72.678" width="5.515" height="19.951" transform="translate(-49.069 83.822) rotate(-62.112)" style="fill:#231815"></rect><path d="M30.635,105.573c-3.93-2.079-5.1-7.566-2.622-12.256s7.678-6.806,11.609-4.726,5.1,7.566,2.621,12.256S34.565,107.653,30.635,105.573Zm8.155-6.554a4.146,4.146,0,1,0-5.672,1.86A4.223,4.223,0,0,0,38.79,99.019Z" style="fill:#231815"></path><path d="M208.754,37.664c2.113-3.188,7.186-3.55,11.329-.8s5.792,7.558,3.68,10.747-7.185,3.549-11.33.8S206.642,40.853,208.754,37.664Zm5.589,7.862A3.474,3.474,0,1,0,213.19,40.6,3.578,3.578,0,0,0,214.343,45.526Z" style="fill:#231815"></path><polygon points="222.696 37.91 224.465 35.241 219.868 32.195 218.099 34.864 212.312 31.033 210.281 34.098 226.45 44.809 228.482 41.745 222.696 37.91" style="fill:#231815"></polygon><polygon points="237.712 45.385 233.115 42.339 223.83 56.355 228.427 59.4 232.515 53.229 236.638 55.961 238.669 52.895 234.545 50.164 237.712 45.385" style="fill:#231815"></polygon><polygon points="206.365 46.734 204.333 49.799 220.903 60.774 216.607 67.258 221.204 70.304 227.53 60.754 206.365 46.734" style="fill:#231815"></polygon><polygon points="251.985 100.412 261.637 94.995 258.938 90.183 249.285 95.599 242.18 82.944 238.974 84.743 254.742 112.844 257.953 111.043 251.985 100.412" style="fill:#231815"></polygon><polyline points="246.548 93.684 257.464 87.558 254.766 82.747 243.848 88.873" style="fill:#231815"></polyline><path d="M274.663,94.252,263.534,74.415l-3.209,1.8,10.14,18.068L253.319,103.9l2.7,4.806,17.577-9.862A3.33,3.33,0,0,0,274.663,94.252Z" style="fill:#231815"></path><path d="M208.772,102.522h-22.21V96.907H178.14V72.718h-33.9c-6.552,0-11.962,2.186-15.645,6.321-3.432,3.854-5.246,9.218-5.246,15.512v7.971h-26.6L85.731,206.272l67.029,28.551,67.029-28.551ZM152.882,232.38l-.122.052-.123-.052L88.3,204.976l-.212-.091.025-.229L98.7,105l.03-.28H125.55V94.551c0-5.747,1.621-10.605,4.688-14.049,3.255-3.653,8.095-5.583,14-5.583h31.7V99.106h8.424v5.616h22.43l.031.28L217.4,204.656l.024.229-.212.091Z" style="fill:#231815"></path><polygon points="184.362 116.11 184.049 116.11 175.938 116.11 175.938 131.425 184.049 131.425 184.362 131.425 184.362 131.738 184.362 135.347 206.129 135.347 203.294 108.645 184.362 108.645 184.362 115.799 184.362 116.11" style="fill:#00afec;fill-rule:evenodd"></polygon><polygon points="102.226 108.645 99.39 135.347 125.55 135.347 125.55 108.645 102.226 108.645" style="fill:#00afec;fill-rule:evenodd"></polygon><path d="M206.513,138.956H184.362v9.335h-8.424v12.934H149.719V138.956h-9.857v2.505c0,12.774-11.876,19.455-23.608,19.455h-1.177V147.081h.757c5.539,0,9.716-2.911,9.716-6.771v-1.354H99.006l-6.738,63.475L152.76,228.2l60.492-25.769Z" style="fill:#005bac;fill-rule:evenodd"></path><rect x="139.862" y="108.645" width="9.857" height="26.702" style="fill:#00afec"></rect><path d="M146.54,87.3c-3.216,0-6.678,2.306-6.678,7.372v10.046h9.857V87.3Zm1,15.218h-5.475V94.676c0-3.817,2.411-5.173,4.477-5.173h1Z" style="fill-rule:evenodd"></path><path d="M124.309,180.706v1.709h4.237v14.458h2.2V177.018h-1.72C128.705,180.123,127.143,180.653,124.309,180.706Z" style="fill:#fff"></path><path d="M142.016,177.016c-3.018,0-5.268,2.7-5.268,6.934,0,3.207,1.562,6.06,5.108,6.06a3.932,3.932,0,0,0,3.654-2.43h.053c-.1,2.114-.079,7.721-3.441,7.721-1.87,0-2.636-.953-2.636-2.753h-2.251c.079,2.859,1.695,4.734,4.63,4.734,5.711,0,5.87-6.907,5.87-11.037C147.735,182.148,147.337,177.016,142.016,177.016Zm.105,11.016c-2.567,0-3.1-2.413-3.1-4.478,0-2.014.583-4.557,3.07-4.557,2.646,0,3.255,2.781,3.255,4.9C145.349,185.964,144.608,188.032,142.121,188.032Z" style="fill:#fff"></path><path d="M158.562,183.852a4.089,4.089,0,0,0-3.2,1.426l.872-5.876H162.9v-1.98h-8.436L153.3,187.637h1.959a2.785,2.785,0,0,1,2.776-1.8c2.8,0,3.3,2.387,3.3,4.668,0,2.466-.845,4.8-3.171,4.8-2.247,0-3.04-1.484-2.935-3.607h-2.275c-.16,3.5,1.747,5.588,5.263,5.588,4.1,0,5.4-3.6,5.4-7.126C163.616,186.92,162.211,183.878,158.562,183.852Z" style="fill:#fff"></path><path d="M176.144,189.928V177.017h-2.015l-7.414,12.86v2.033h7.231v4.963h2.2V191.91h1.773v-1.982Zm-2.2,0h-5.483l5.483-9.469Z" style="fill:#fff"></path></g></g></svg>